<svg width="24" height="24" viewBox="0 0 24 24" fill="none" xmlns="http://www.w3.org/2000/svg">
<path d="M15.2966 10.0974C15.5189 10.2612 15.5664 10.5742 15.4027 10.7965C15.2755 10.9692 15.1483 11.1334 15.0367 11.2764C14.8139 11.5618 14.5073 11.9441 14.1741 12.3278C13.8431 12.709 13.476 13.1032 13.1334 13.406C12.9627 13.5568 12.7862 13.6956 12.6141 13.7993C12.4557 13.8948 12.2381 14 12.0001 14C11.762 14 11.5444 13.8948 11.386 13.7993C11.2139 13.6956 11.0375 13.5568 10.8667 13.406C10.5241 13.1032 10.1571 12.709 9.82604 12.3278C9.49286 11.9441 9.1862 11.5618 8.96344 11.2764C8.85186 11.1334 8.72463 10.9692 8.59744 10.7965C8.43368 10.5742 8.48118 10.2612 8.70352 10.0974C8.7929 10.0316 8.89693 9.99992 9.00003 10H12.0001H15.0001C15.1032 9.99992 15.2072 10.0316 15.2966 10.0974Z" fill="#F6F8FC"/>
</svg>
