<svg width="16" height="11" viewBox="0 0 16 11" fill="none" xmlns="http://www.w3.org/2000/svg">
<path d="M14.8506 0.765747C15.0626 0.495896 15.4626 0.439479 15.7441 0.6427C16.0253 0.845954 16.0838 1.22844 15.8721 1.49817L8.7207 10.2599C8.60254 10.4131 8.41783 10.5026 8.21973 10.506H8.20605C8.01143 10.506 7.82672 10.4231 7.70508 10.2765L6.88672 9.71106L7.70508 8.71497L8.19531 9.10559L14.8506 0.765747ZM10.5576 0.245239C10.7696 -0.0246118 11.1697 -0.0810288 11.4512 0.122192C11.7326 0.325421 11.7921 0.708799 11.5801 0.978638L4.42773 10.1603C4.30957 10.3135 4.12482 10.403 3.92676 10.4064H3.91309C3.71847 10.4064 3.53375 10.3235 3.41211 10.1769L0.138672 6.23157C-0.0800313 5.96839 -0.03521 5.58201 0.239258 5.37219C0.513705 5.16241 0.916733 5.20597 1.13574 5.46887L3.89551 8.79407L10.5576 0.245239Z" fill="white"/>
</svg>
