<svg width="31" height="31" viewBox="0 0 31 31" fill="none" xmlns="http://www.w3.org/2000/svg">
<g opacity="0.5">
<path d="M2.61149 15.0422C2.52257 14.7784 2.52257 14.4928 2.61149 14.2291C4.37629 8.91943 9.38569 5.08954 15.2896 5.08954C21.1909 5.08954 26.1978 8.91561 27.9664 14.2228C28.0555 14.4861 28.0555 14.7712 27.9664 15.0358C26.2029 20.3455 21.1935 24.1754 15.2896 24.1754C9.38824 24.1754 4.38011 20.3493 2.61149 15.0422Z" stroke="#E3E3E3" stroke-width="1.90858" stroke-linecap="round" stroke-linejoin="round"/>
<path d="M19.0859 15.2686C19.0859 16.281 18.6837 17.2519 17.9679 17.9678C17.252 18.6836 16.2811 19.0858 15.2687 19.0858C14.2563 19.0858 13.2854 18.6836 12.5696 17.9678C11.8537 17.2519 11.4515 16.281 11.4515 15.2686C11.4515 14.2563 11.8537 13.2854 12.5696 12.5695C13.2854 11.8536 14.2563 11.4515 15.2687 11.4515C16.2811 11.4515 17.252 11.8536 17.9679 12.5695C18.6837 13.2854 19.0859 14.2563 19.0859 15.2686Z" stroke="#E3E3E3" stroke-width="1.90858" stroke-linecap="round" stroke-linejoin="round"/>
</g>
</svg>
