<svg width="16" height="16" viewBox="0 0 16 16" fill="none" xmlns="http://www.w3.org/2000/svg">
<g clip-path="url(#clip0_1_9474)">
<path d="M9.38263 2.59028C9.87943 2.05203 10.1278 1.78291 10.3918 1.62593C11.0286 1.24715 11.8129 1.23537 12.4604 1.59486C12.7288 1.74385 12.9848 2.00539 13.4968 2.52849C14.0089 3.05158 14.265 3.31313 14.4108 3.58727C14.7627 4.24873 14.7512 5.04984 14.3804 5.70045C14.2267 5.97009 13.9632 6.22383 13.4364 6.73131L7.16723 12.7695C6.16875 13.7312 5.6695 14.2121 5.04554 14.4558C4.42158 14.6995 3.73563 14.6816 2.36374 14.6457L2.17708 14.6408C1.75944 14.6299 1.55061 14.6244 1.42922 14.4866C1.30783 14.3489 1.3244 14.1362 1.35755 13.7108L1.37555 13.4798C1.46884 12.2823 1.51548 11.6836 1.7493 11.1454C1.98312 10.6072 2.38646 10.1703 3.19312 9.29631L9.38263 2.59028Z" stroke="#1876D2" stroke-width="1.3" stroke-linejoin="round"/>
<path d="M8.6665 2.66669L13.3332 7.33335" stroke="#1876D2" stroke-width="1.3" stroke-linejoin="round"/>
<path d="M9.3335 14.6667H14.6668" stroke="#1876D2" stroke-width="1.3" stroke-linecap="round" stroke-linejoin="round"/>
</g>
<defs>
<clipPath id="clip0_1_9474">
<rect width="16" height="16" fill="white"/>
</clipPath>
</defs>
</svg>
