<svg width="16" height="16" viewBox="0 0 16 16" fill="none" xmlns="http://www.w3.org/2000/svg">
<path d="M8.00049 2.48372C8.1015 2.4839 8.18293 2.56533 8.18311 2.66634V7.81673H13.3335C13.4348 7.81673 13.5171 7.89904 13.5171 8.00032C13.5169 8.10146 13.4347 8.18294 13.3335 8.18294H8.18311V13.3333C8.18311 13.4345 8.10162 13.5168 8.00049 13.5169C7.89921 13.5169 7.81689 13.4346 7.81689 13.3333V8.18294H2.6665C2.56549 8.18277 2.48406 8.10133 2.48389 8.00032C2.48389 7.89916 2.56539 7.81691 2.6665 7.81673H7.81689V2.66634C7.81707 2.56522 7.89933 2.48372 8.00049 2.48372Z" stroke="#E6F4FF" stroke-width="1.3"/>
</svg>
